<svg width="80" height="80" viewBox="0 0 80 80" fill="none" xmlns="http://www.w3.org/2000/svg">
<path d="M70.1035 2.47412H9.89729C5.79786 2.47412 2.47461 5.79737 2.47461 9.8968V70.103C2.47461 74.2024 5.79786 77.5257 9.89729 77.5257H70.1035C74.2029 77.5257 77.5261 74.2024 77.5261 70.103V9.8968C77.5261 5.79737 74.2029 2.47412 70.1035 2.47412Z" stroke="#FFFAEF" stroke-width="4"/>
<path d="M72.2578 58.9403L70.427 58.9279C70.229 58.0248 69.9815 56.5527 69.5857 55.6991C69.264 55.031 68.8434 54.9073 68.2125 54.9073H64.8104V58.9279H63.0537V48.8826H68.7568C71.1939 48.8826 71.7382 50.0207 71.7382 51.7156C71.7382 52.3836 71.7382 53.9795 70.365 54.363C71.3176 54.7465 71.4908 55.229 72.2578 58.9403ZM69.9815 51.9382V51.765C69.9815 50.9362 69.8083 50.4537 68.4351 50.4537H64.8104V53.3362H68.3486C69.3135 53.3362 69.9198 53.2125 69.9815 51.9382Z" fill="#FFFAEF"/>
<path d="M61.8179 58.7918L53.7148 58.7795V48.8826H61.62V50.4908H55.4839V52.8661H61.1252V54.4743H55.4839V57.2083H61.8179V58.7918Z" fill="#FFFAEF"/>
<path d="M48.678 58.7917H42.9873V48.8948H48.4801C51.3254 48.8948 52.2409 50.1195 52.2409 53.8061V53.9917C52.2409 57.035 51.709 58.7917 48.678 58.7917ZM44.6945 57.1958H48.4059C49.7791 57.1958 50.4718 56.7257 50.4718 53.8432C50.4718 50.5278 49.2842 50.4783 48.2698 50.4783H44.6945V57.1958Z" fill="#FFFAEF"/>
<path d="M41.2025 58.8042L38.7777 58.7918L35.5365 53.5465C35.2396 53.064 33.9654 50.5403 33.9654 50.5403C33.9654 50.5403 33.9159 50.5032 33.8788 50.5032C33.854 50.5032 33.8416 50.5156 33.8416 50.5527C33.8416 51.0228 33.9777 53.3857 33.9777 54.0042V58.7918H32.2705V48.8826H34.6953L37.9983 54.3011C38.3324 54.8578 39.4829 57.0599 39.4829 57.0599C39.4829 57.0599 39.5324 57.097 39.5818 57.097C39.6066 57.097 39.619 57.0846 39.619 57.0475C39.6066 56.6269 39.4953 54.4743 39.4953 53.831V48.8826H41.2025V58.8042Z" fill="#FFFAEF"/>
<path d="M25.9778 59.0145H25.718C21.9819 59.0145 20.9922 58.4331 20.9922 53.9424C20.9922 49.2537 21.8087 48.697 26.0025 48.697C30.1468 48.697 30.654 49.4517 30.7159 53.8063C30.7159 57.9877 30.1221 59.0145 25.9778 59.0145ZM25.9901 50.2558H25.7303C23.0705 50.2558 22.7736 50.763 22.7736 53.9424C22.7736 54.5857 22.7984 55.2414 22.8726 55.7238C23.0334 56.8991 23.3303 57.4434 25.7551 57.4434C28.6994 57.4434 28.9345 57.0104 28.9345 53.8682C28.9345 50.6269 28.5138 50.2558 25.9901 50.2558Z" fill="#FFFAEF"/>
<path d="M17.9878 58.7918H15.5754L14.4125 53.1877L13.9795 50.7135C13.9672 50.6516 13.9424 50.6022 13.9177 50.6022C13.8929 50.6022 13.8682 50.6393 13.8558 50.7135L13.4228 53.2248L12.2723 58.7918H9.85995L7.6084 48.8826H9.43933L10.4909 54.0413L11.0476 57.1836C11.0599 57.2578 11.0847 57.2949 11.1094 57.2949C11.1218 57.2949 11.1465 57.2578 11.1589 57.1836L11.6909 54.0537L12.7177 48.8826H15.1053L16.1197 53.9052L16.6888 57.1217C16.7012 57.1712 16.7136 57.196 16.7259 57.196C16.7383 57.196 16.7507 57.1589 16.763 57.1217C16.9486 56.1939 17.2455 54.4991 17.3569 53.93L18.3837 48.8826H20.2146L17.9878 58.7918Z" fill="#FFFAEF"/>
<path d="M68.8828 70.4694H68.665C65.4287 70.4694 65.1318 69.539 65.1318 67.7279H66.5867V68.1634C66.6263 69.1135 67.2498 69.1531 68.7046 69.2025H68.9125C70.6939 69.2025 70.9116 68.7671 70.9116 68.0347C70.9116 67.3518 70.6147 67.0549 69.9516 66.9658C69.1995 66.8669 67.6852 66.758 66.9331 66.6689C65.5079 66.4908 65.1417 65.798 65.1417 64.5906C65.1417 62.7597 65.9632 62.2153 68.6254 62.2153H68.8828C71.4856 62.2153 72.0498 62.8982 72.0498 64.7885H70.6345V64.5708C70.6345 63.9473 70.496 63.4722 68.8036 63.4722H68.665C66.5768 63.4722 66.5174 63.9374 66.5174 64.5114C66.5174 65.3032 66.844 65.3823 67.4774 65.4714C68.0712 65.5506 69.338 65.6199 70.199 65.7386C71.6836 65.9267 72.317 66.4512 72.317 68.0446C72.317 69.7865 71.5747 70.4694 68.8828 70.4694Z" fill="#FFFAEF"/>
<path d="M64.5479 70.41L63.0831 70.4001C62.9248 69.6776 62.7268 68.4999 62.4101 67.817C62.1528 67.2825 61.8163 67.1836 61.3116 67.1836H58.5899V70.4001H57.1846V62.3638H61.747C63.6967 62.3638 64.1322 63.2743 64.1322 64.6302C64.1322 65.1646 64.1322 66.4413 63.0336 66.7481C63.7957 67.0549 63.9343 67.4409 64.5479 70.41ZM62.7268 64.8083V64.6698C62.7268 64.0067 62.5883 63.6207 61.4897 63.6207H58.5899V65.9267H61.4204C62.1924 65.9267 62.6773 65.8277 62.7268 64.8083Z" fill="#FFFAEF"/>
<path d="M56.1963 70.2912L49.7139 70.2813V62.3638H56.038V63.6504H51.1291V65.5506H55.6421V66.8372H51.1291V69.0244H56.1963V70.2912Z" fill="#FFFAEF"/>
<path d="M48.2594 70.3011L46.8442 70.2912V66.7877H42.4104V70.2912H40.9951V62.3638H42.4104V65.511H46.8442V62.3638H48.2594V70.3011Z" fill="#FFFAEF"/>
<path d="M37.0866 70.2912H35.6614V63.6405H32.623V62.3638H40.115V63.6405H37.0866V70.2912Z" fill="#FFFAEF"/>
<path d="M28.1428 70.4694H27.9349C24.9461 70.4694 24.1543 70.0042 24.1543 66.4116C24.1543 62.6607 24.8075 62.2153 28.1625 62.2153C31.478 62.2153 31.8838 62.819 31.9333 66.3028C31.9333 69.6479 31.4582 70.4694 28.1428 70.4694ZM28.1526 63.4623H27.9448C25.817 63.4623 25.5795 63.8681 25.5795 66.4116C25.5795 66.9263 25.5992 67.4508 25.6586 67.8368C25.7873 68.777 26.0248 69.2124 27.9646 69.2124C30.3201 69.2124 30.5081 68.8661 30.5081 66.3522C30.5081 63.7593 30.1716 63.4623 28.1526 63.4623Z" fill="#FFFAEF"/>
<path d="M23.501 70.41L22.0363 70.4001C21.8779 69.6776 21.68 68.4999 21.3633 67.817C21.1059 67.2825 20.7694 67.1836 20.2647 67.1836H17.5431V70.4001H16.1377V62.3638H20.7002C22.6499 62.3638 23.0853 63.2743 23.0853 64.6302C23.0853 65.1646 23.0853 66.4413 21.9868 66.7481C22.7488 67.0549 22.8874 67.4409 23.501 70.41ZM21.68 64.8083V64.6698C21.68 64.0067 21.5414 63.6207 20.4428 63.6207H17.5431V65.9267H20.3736C21.1455 65.9267 21.6305 65.8277 21.68 64.8083Z" fill="#FFFAEF"/>
<path d="M12.6478 70.2913H8.13477V62.3738H12.6676C14.7459 62.3738 14.7558 63.6901 14.7558 64.3136C14.7558 64.9074 14.736 65.8773 13.6375 66.1445C14.9637 66.3919 15.0626 67.2134 15.0626 68.0744C15.0626 68.3317 15.0527 68.5791 15.023 68.8068C14.8548 69.9053 13.8057 70.2913 12.6478 70.2913ZM12.2024 63.5911H9.49067V65.6299H12.2222C12.8754 65.6299 13.3703 65.6002 13.3703 64.6006C13.3703 63.987 13.3703 63.5911 12.2024 63.5911ZM12.3509 66.8373H9.49067V69.0938H12.4498C13.4197 69.0938 13.687 68.7078 13.687 68.114C13.687 68.0348 13.6771 67.9655 13.6771 67.8864C13.6771 66.9363 13.0437 66.8373 12.3509 66.8373Z" fill="#FFFAEF"/>
<path d="M56.0059 19.051V27.3749H65.3217C66.7366 27.4373 68.1414 27.1132 69.3812 26.4386C69.9024 26.0748 70.3173 25.5823 70.5845 25.0105C70.8516 24.4388 70.9617 23.8078 70.9035 23.1809C70.9871 22.4605 70.8322 21.7326 70.4616 21.1061C70.0911 20.4798 69.525 19.9882 68.8478 19.7051C67.4087 19.2572 65.907 19.0364 64.3979 19.051H56.0059ZM56.0059 33.6339V43.7021H65.3088C66.6435 43.7619 67.9755 43.5343 69.212 43.0351C70.0607 42.5853 70.7533 41.8954 71.2008 41.0543C71.6484 40.2131 71.8303 39.2592 71.7232 38.3153C71.7955 37.4759 71.5999 36.6351 71.1637 35.9108C70.7274 35.1863 70.0723 34.6144 69.2901 34.2751C68.0684 33.806 66.7622 33.5878 65.4519 33.6339H56.0059Z" fill="#FFFAEF"/>
<path d="M28.3828 12.3711L32.8857 34.0668L34.0436 40.1148L35.2015 34.3113L40.2577 12.3711H28.3828Z" fill="#FFFAEF"/>
<path d="M8.24707 12.3711L13.3188 34.0797L14.427 40.1148L15.5353 34.1955L19.8639 12.3711H8.24707Z" fill="#FFFAEF"/>
</svg>
